mtllib model.mtl
o object_0
g object_0
usemtl object_0
v 0.19249896705150604 0.7818099856376648 0.1006224974989891 
v 0.19249896705150604 0.7818099856376648 -0.10005699843168259 
v 0.007299609947949648 0.7818099856376648 0.1006224974989891 
v 0.007299609947949648 0.7818099856376648 -0.10005699843168259 
v 0.5455352663993835 0.7855700254440308 -0.10005699843168259 
v 0.5455352663993835 0.7855700254440308 0.1006224974989891 
v 0.7365220785140991 0.7855700254440308 -0.10005699843168259 
v 0.7365220785140991 0.7855700254440308 0.1006224974989891 
v 0.19249896705150604 0.7824880480766296 0.4503782093524933 
v 0.0015121300239115953 0.7824880480766296 0.4503782093524933 
v 0.19249896705150604 0.7824880480766296 0.6281229257583618 
v 0.0015121300239115953 0.7824880480766296 0.6281229257583618 
v 0.5455352663993835 0.7854467630386353 0.4503782093524933 
v 0.5455352663993835 0.7854467630386353 0.6281229257583618 
v 0.7365220785140991 0.7854467630386353 0.4503782093524933 
v 0.7365220785140991 0.7854467630386353 0.6281229257583618 
vn 0.000000 0.999998 0.002185
vn 0.000000 0.999998 0.002185
vn 0.000000 0.999998 0.002185
vn 0.000000 0.999998 0.002185
vn 0.000000 0.999998 0.002185
vn 0.000000 0.999998 0.002185
vn 0.000000 0.999998 0.002185
vn 0.000000 0.999998 0.002185
vn 0.000000 0.999998 0.002185
vn 0.000000 0.999998 0.002185
vn 0.000000 0.999998 0.002185
vn 0.000000 0.999998 0.002185
vn 0.000000 0.999998 0.002185
vn 0.000000 0.999998 0.002185
vn 0.000000 0.999998 0.002185
vn 0.000000 0.999998 0.002185
f 1/0/1 2/0/2 3/0/3
f 2/0/2 4/0/4 3/0/3
f 5/0/5 6/0/6 7/0/7
f 6/0/6 8/0/8 7/0/7
f 9/0/9 10/0/10 11/0/11
f 10/0/10 12/0/12 11/0/11
f 13/0/13 14/0/14 15/0/15
f 14/0/14 16/0/16 15/0/15
o object_1
g object_1
usemtl object_1
v 0.5455352663993835 0.3671571910381317 -0.10005699843168259 
v 0.5455352663993835 -0.0014506200095638633 -0.10005699843168259 
v 0.5455352663993835 0.3671571910381317 0.1006224974989891 
v 0.5455352663993835 -0.0014506200095638633 0.1006224974989891 
v 0.19249896705150604 0.7818101048469543 0.1006224974989891 
v 0.19249896705150604 0.4397692084312439 0.1006224974989891 
v 0.19249896705150604 0.7818101048469543 -0.10005699843168259 
v 0.19249896705150604 0.4397692084312439 -0.10005699843168259 
v 0.7365220785140991 0.0016313849482685328 0.6281229257583618 
v 0.7365220785140991 0.0016313849482685328 0.4503782093524933 
v 0.7365220785140991 0.3732595443725586 0.6281229257583618 
v 0.7365220785140991 0.3732595443725586 0.4503782093524933 
v 0.7365220785140991 0.44328269362449646 0.4503782093524933 
v 0.7365220785140991 0.44328269362449646 0.6281229257583618 
v 0.7365220785140991 0.7854468822479248 0.4503782093524933 
v 0.7365220785140991 0.7854468822479248 0.6281229257583618 
v 0.7365220785140991 0.3674037456512451 0.1006224974989891 
v 0.7365220785140991 -0.0014506200095638633 0.1006224974989891 
v 0.7365220785140991 0.36845162510871887 -0.10005699843168259 
v 0.7365220785140991 -0.0014506200095638633 -0.10005699843168259 
v 0.7365220785140991 0.4423581063747406 0.1006224974989891 
v 0.7365220785140991 0.4423581063747406 -0.10005699843168259 
v 0.7365220785140991 0.7855702042579651 -0.10005699843168259 
v 0.19249896705150604 0.00002874240090022795 0.4503782093524933 
v 0.0015121300239115953 0.00002874240090022795 0.4503782093524933 
v 0.19249896705150604 0.4397692084312439 0.1006224974989891 
v 0.007299609947949648 0.44168007373809814 0.1006224974989891 
v 0.19249896705150604 0.7824881672859192 0.4503782093524933 
v 0.19249896705150604 0.7824881672859192 0.6281229257583618 
v 0.5455352663993835 0.3732595443725586 0.4503782093524933 
v 0.5455352663993835 0.3732595443725586 0.6281229257583618 
v 0.5455352663993835 0.44328269362449646 0.4503782093524933 
v 0.5455352663993835 0.7854468822479248 0.4503782093524933 
v 0.5455352663993835 -0.0014506200095638633 0.1006224974989891 
v 0.5455352663993835 0.3671571910381317 0.1006224974989891 
v 0.0015121300239115953 0.00002874240090022795 0.4503782093524933 
v 0.0015121300239115953 0.3737526834011078 0.4503782093524933 
v 0.007299609947949648 0.44168007373809814 0.1006224974989891 
v 0.007299609947949648 0.7818101048469543 0.1006224974989891 
v 0.19249896705150604 0.00002874240090022795 0.6281229257583618 
v 0.0015121300239115953 0.00002874240090022795 0.6281229257583618 
v 0.19249896705150604 0.00002874240090022795 0.4503782093524933 
v 0.0015121300239115953 0.00002874240090022795 0.4503782093524933 
v 0.19249896705150604 0.4397692084312439 0.1006224974989891 
v 0.19249896705150604 0.7818101048469543 0.1006224974989891 
v 0.19249896705150604 0.00002874240090022795 0.4503782093524933 
v 0.19249896705150604 0.3737526834011078 0.4503782093524933 
v 0.5455352663993835 -0.0014506200095638633 0.1006224974989891 
v 0.5455352663993835 -0.0014506200095638633 -0.10005699843168259 
v 0.7365220785140991 -0.0014506200095638633 0.1006224974989891 
v 0.7365220785140991 -0.0014506200095638633 -0.10005699843168259 
v 0.007299609947949648 -0.0014506200095638633 -0.10005699843168259 
v 0.007299609947949648 -0.0014506200095638633 0.1006224974989891 
v 0.007299609947949648 0.3721500337123871 -0.10005699843168259 
v 0.007299609947949648 0.37332117557525635 0.1006224974989891 
v 0.007299609947949648 0.44168007373809814 0.1006224974989891 
v 0.007299609947949648 0.44168007373809814 -0.10005699843168259 
v 0.007299609947949648 0.7818101048469543 0.1006224974989891 
v 0.007299609947949648 0.7818101048469543 -0.10005699843168259 
v 0.5455352663993835 0.3732595443725586 0.6281229257583618 
v 0.5455352663993835 0.44328269362449646 0.6281229257583618 
v 0.5455352663993835 0.3732595443725586 0.4503782093524933 
v 0.5455352663993835 0.44328269362449646 0.4503782093524933 
v 0.5455352663993835 0.7854468822479248 0.6281229257583618 
v 0.5455352663993835 0.7854468822479248 0.4503782093524933 
v 0.7365220785140991 0.44328269362449646 0.4503782093524933 
v 0.5455352663993835 0.44328269362449646 0.4503782093524933 
v 0.7365220785140991 -0.0014506200095638633 0.1006224974989891 
v 0.5455352663993835 -0.0014506200095638633 0.1006224974989891 
v 0.19249896705150604 0.00002874240090022795 0.6281229257583618 
v 0.19249896705150604 0.00002874240090022795 0.4503782093524933 
v 0.19249896705150604 0.3737526834011078 0.6281229257583618 
v 0.19249896705150604 0.3737526834011078 0.4503782093524933 
v 0.19249896705150604 0.4488303065299988 0.4503782093524933 
v 0.7365220785140991 0.0016313849482685328 0.4503782093524933 
v 0.7365220785140991 0.0016313849482685328 0.6281229257583618 
v 0.5455352663993835 0.0016313849482685328 0.4503782093524933 
v 0.5455352663993835 0.0016313849482685328 0.6281229257583618 
v 0.5455352663993835 0.4423581063747406 0.1006224974989891 
v 0.5455352663993835 0.4423581063747406 -0.10005699843168259 
v 0.5455352663993835 0.3671571910381317 0.1006224974989891 
v 0.5455352663993835 0.3671571910381317 -0.10005699843168259 
v 0.19249896705150604 0.371287077665329 -0.10005699843168259 
v 0.19249896705150604 0.37356775999069214 0.1006224974989891 
v 0.5455352663993835 0.7855702042579651 -0.10005699843168259 
v 0.5455352663993835 0.7855702042579651 0.1006224974989891 
v 0.0015121300239115953 0.00002874240090022795 0.6281229257583618 
v 0.0015121300239115953 0.3737526834011078 0.6281229257583618 
v 0.0015121300239115953 0.00002874240090022795 0.4503782093524933 
v 0.0015121300239115953 0.3737526834011078 0.4503782093524933 
v 0.0015121300239115953 0.4488303065299988 0.6281229257583618 
v 0.0015121300239115953 0.4488303065299988 0.4503782093524933 
v 0.0015121300239115953 0.7824881672859192 0.6281229257583618 
v 0.0015121300239115953 0.7824881672859192 0.4503782093524933 
v 0.19249896705150604 0.4397692084312439 -0.10005699843168259 
v 0.19249896705150604 0.4397692084312439 0.1006224974989891 
v 0.19249896705150604 0.371287077665329 -0.10005699843168259 
v 0.19249896705150604 0.37356775999069214 0.1006224974989891 
v 0.007299609947949648 -0.0014506200095638633 0.1006224974989891 
v 0.007299609947949648 -0.0014506200095638633 -0.10005699843168259 
v 0.19249896705150604 -0.0014506200095638633 0.1006224974989891 
v 0.19249896705150604 -0.0014506200095638633 -0.10005699843168259 
v 0.7365220785140991 0.7855702042579651 0.1006224974989891 
v 0.19249896705150604 0.4488303065299988 0.6281229257583618 
vn -0.999969 -0.007552 0.002185
vn -0.999969 -0.007552 0.002185
vn -0.999969 -0.007552 0.002185
vn -0.999969 -0.007552 0.002185
vn 0.999969 -0.007552 0.002185
vn 0.999969 -0.007552 0.002185
vn 0.999969 -0.007552 0.002185
vn 0.999969 -0.007552 0.002185
vn 0.999998 0.000000 0.002185
vn 0.999998 0.000000 0.002185
vn 0.999998 0.000000 0.002185
vn 0.999998 0.000000 0.002185
vn 0.999998 0.000000 0.002185
vn 0.999998 0.000000 0.002185
vn 0.999998 0.000000 0.002185
vn 0.999998 0.000000 0.002185
vn 0.999998 0.000000 0.002185
vn 0.999998 0.000000 0.002185
vn 0.999998 0.000000 0.002185
vn 0.999998 0.000000 0.002185
vn 0.999998 0.000000 0.002185
vn 0.999998 0.000000 0.002185
vn 0.999998 0.000000 0.002185
vn -0.001891 -0.619820 -0.784742
vn -0.001891 -0.619820 -0.784742
vn -0.001891 -0.619820 -0.784742
vn -0.001891 -0.619820 -0.784742
vn 0.758439 0.651741 0.002185
vn 0.758439 0.651741 0.002185
vn 0.758439 0.651741 0.002185
vn 0.758439 0.651741 0.002185
vn -0.999969 -0.007552 0.002185
vn -0.999969 -0.007552 0.002185
vn -0.999969 -0.007552 0.002185
vn -0.999969 -0.007552 0.002185
vn -0.999979 0.000000 -0.006554
vn -0.999979 0.000000 -0.006554
vn -0.999979 0.000000 -0.006554
vn -0.999979 0.000000 -0.006554
vn 0.000000 -0.999998 0.002185
vn 0.000000 -0.999998 0.002185
vn 0.000000 -0.999998 0.002185
vn 0.000000 -0.999998 0.002185
vn 0.999998 0.000000 0.002185
vn 0.999998 0.000000 0.002185
vn 0.999998 0.000000 0.002185
vn 0.999998 0.000000 0.002185
vn 0.000000 -0.999998 0.002185
vn 0.000000 -0.999998 0.002185
vn 0.000000 -0.999998 0.002185
vn 0.000000 -0.999998 0.002185
vn -0.999998 0.000000 0.002185
vn -0.999998 0.000000 0.002185
vn -0.999998 0.000000 0.002185
vn -0.999998 0.000000 0.002185
vn -0.999998 0.000000 0.002185
vn -0.999998 0.000000 0.002185
vn -0.999998 0.000000 0.002185
vn -0.999998 0.000000 0.002185
vn -0.999998 0.000000 0.002185
vn -0.999998 0.000000 0.002185
vn -0.999998 0.000000 0.002185
vn -0.999998 0.000000 0.002185
vn -0.999998 0.000000 0.002185
vn -0.999998 0.000000 0.002185
vn 0.003767 -0.616377 0.787443
vn 0.003767 -0.616377 0.787443
vn 0.003767 -0.616377 0.787443
vn 0.003767 -0.616377 0.787443
vn 0.999998 0.000000 0.002185
vn 0.999998 0.000000 0.002185
vn 0.999998 0.000000 0.002185
vn 0.999998 0.000000 0.002185
vn 0.999998 0.000000 0.002185
vn 0.000000 -0.999998 0.002185
vn 0.000000 -0.999998 0.002185
vn 0.000000 -0.999998 0.002185
vn 0.000000 -0.999998 0.002185
vn -0.999998 0.000000 0.002185
vn -0.999998 0.000000 0.002185
vn -0.999998 0.000000 0.002185
vn -0.999998 0.000000 0.002185
vn -0.763339 0.645994 -0.002185
vn -0.763339 0.645994 -0.002185
vn -0.763339 0.645994 -0.002185
vn -0.763339 0.645994 -0.002185
vn -0.999998 0.000000 0.002185
vn -0.999998 0.000000 0.002185
vn -0.999998 0.000000 0.002185
vn -0.999998 0.000000 0.002185
vn -0.999998 0.000000 0.002185
vn -0.999998 0.000000 0.002185
vn -0.999998 0.000000 0.002185
vn -0.999998 0.000000 0.002185
vn 0.999998 0.000000 0.002185
vn 0.999998 0.000000 0.002185
vn 0.999998 0.000000 0.002185
vn 0.999998 0.000000 0.002185
vn 0.000000 -0.999998 0.002185
vn 0.000000 -0.999998 0.002185
vn 0.000000 -0.999998 0.002185
vn 0.000000 -0.999998 0.002185
vn 0.999998 0.000000 0.002185
vn 0.999998 0.000000 0.002185
f 17/16/17 18/16/18 19/16/19
f 18/16/18 20/16/20 19/16/19
f 21/16/21 22/16/22 23/16/23
f 22/16/22 24/16/24 23/16/23
f 25/16/25 26/16/26 27/16/27
f 26/16/26 28/16/28 27/16/27
f 27/16/27 28/16/28 29/16/29
f 27/16/27 29/16/29 30/16/30
f 29/16/29 31/16/31 30/16/30
f 30/16/30 31/16/31 32/16/32
f 31/16/31 29/16/29 33/16/33
f 29/16/29 34/16/34 33/16/33
f 33/16/33 34/16/34 35/16/35
f 34/16/34 36/16/36 35/16/35
f 33/16/33 35/16/35 37/16/37
f 35/16/35 38/16/38 37/16/37
f 37/16/37 38/16/38 39/16/39
f 40/16/40 41/16/41 42/16/42
f 41/16/41 43/16/43 42/16/42
f 44/16/44 45/16/45 46/16/46
f 45/16/45 47/16/47 46/16/46
f 48/16/48 49/16/49 50/16/50
f 49/16/49 51/16/51 50/16/50
f 52/16/52 53/16/53 54/16/54
f 53/16/53 55/16/55 54/16/54
f 56/16/56 57/16/57 58/16/58
f 57/16/57 59/16/59 58/16/58
f 60/16/60 61/16/61 62/16/62
f 61/16/61 63/16/63 62/16/62
f 64/16/64 65/16/65 66/16/66
f 65/16/65 67/16/67 66/16/66
f 68/16/68 69/16/69 70/16/70
f 69/16/69 71/16/71 70/16/70
f 70/16/70 71/16/71 72/16/72
f 70/16/70 72/16/72 73/16/73
f 72/16/72 74/16/74 73/16/73
f 73/16/73 74/16/74 75/16/75
f 76/16/76 77/16/77 78/16/78
f 77/16/77 79/16/79 78/16/78
f 77/16/77 80/16/80 79/16/79
f 80/16/80 81/16/81 79/16/79
f 82/16/82 83/16/83 84/16/84
f 83/16/83 85/16/85 84/16/84
f 86/16/86 87/16/87 88/16/88
f 87/16/87 89/16/89 88/16/88
f 88/16/88 89/16/89 90/16/90
f 91/16/91 92/16/92 93/16/93
f 92/16/92 94/16/94 93/16/93
f 95/16/95 96/16/96 97/16/97
f 96/16/96 98/16/98 97/16/97
f 99/16/99 100/16/100 101/16/101
f 100/16/100 102/16/102 101/16/101
f 103/16/103 104/16/104 105/16/105
f 104/16/104 106/16/106 105/16/105
f 104/16/104 107/16/107 106/16/106
f 107/16/107 108/16/108 106/16/106
f 107/16/107 109/16/109 108/16/108
f 109/16/109 110/16/110 108/16/108
f 111/16/111 112/16/112 113/16/113
f 112/16/112 114/16/114 113/16/113
f 115/16/115 116/16/116 117/16/117
f 116/16/116 118/16/118 117/16/117
f 37/16/37 39/16/39 119/16/119
f 88/16/88 90/16/90 120/16/120
o object_2
g object_2
usemtl object_2
v 0.19249896705150604 -0.0014506200095638633 0.1006224974989891 
v 0.19249896705150604 -0.0014506200095638633 -0.10005699843168259 
v 0.5455352663993835 0.4423581063747406 0.1006224974989891 
v 0.5455352663993835 0.4423581063747406 -0.10005699843168259 
v 0.7365220785140991 0.3674037456512451 0.1006224974989891 
v 0.5455352663993835 0.3671571910381317 0.1006224974989891 
v 0.7365220785140991 0.7854468822479248 0.4503782093524933 
v 0.5455352663993835 0.7854468822479248 0.4503782093524933 
v 0.19249896705150604 0.4488303065299988 0.6281229257583618 
v 0.19249896705150604 0.4488303065299988 0.4503782093524933 
v 0.5455352663993835 0.0016313849482685328 0.6281229257583618 
v 0.5455352663993835 0.0016313849482685328 0.4503782093524933 
v 0.0015121300239115953 0.3737526834011078 0.4503782093524933 
v 0.19249896705150604 0.3737526834011078 0.4503782093524933 
v 0.007299609947949648 0.7818101048469543 0.1006224974989891 
v 0.19249896705150604 0.7818101048469543 0.1006224974989891 
vn 0.782502 -0.622645 0.002185
vn 0.782502 -0.622645 0.002185
vn 0.782502 -0.622645 0.002185
vn 0.782502 -0.622645 0.002185
vn 0.000000 0.640181 -0.768225
vn 0.000000 0.640181 -0.768225
vn 0.000000 0.640181 -0.768225
vn 0.000000 0.640181 -0.768225
vn -0.782502 -0.622645 0.002185
vn -0.782502 -0.622645 0.002185
vn -0.782502 -0.622645 0.002185
vn -0.782502 -0.622645 0.002185
vn 0.003769 0.650184 0.759767
vn 0.003769 0.650184 0.759767
vn 0.003769 0.650184 0.759767
vn 0.003769 0.650184 0.759767
f 121/120/121 122/120/122 123/120/123
f 122/120/122 124/120/124 123/120/123
f 125/120/125 126/120/126 127/120/127
f 126/120/126 128/120/128 127/120/127
f 129/120/129 130/120/130 131/120/131
f 130/120/130 132/120/132 131/120/131
f 133/120/133 134/120/134 135/120/135
f 134/120/134 136/120/136 135/120/135
o object_3
g object_3
usemtl object_3
v 0.7365220785140991 0.3674037456512451 0.1006224974989891 
v 0.7365220785140991 0.4423581063747406 0.1006224974989891 
v 0.5455352663993835 0.3671571910381317 0.1006224974989891 
v 0.5455352663993835 0.4423581063747406 0.1006224974989891 
v 0.5455352663993835 0.7855702042579651 0.1006224974989891 
v 0.19249896705150604 -0.0014506200095638633 0.1006224974989891 
v 0.19249896705150604 0.37356775999069214 0.1006224974989891 
v 0.007299609947949648 -0.0014506200095638633 0.1006224974989891 
v 0.007299609947949648 0.37332117557525635 0.1006224974989891 
v 0.19249896705150604 0.4397692084312439 0.1006224974989891 
v 0.007299609947949648 0.44168007373809814 0.1006224974989891 
v 0.7365220785140991 0.7855702042579651 -0.10005699843168259 
v 0.7365220785140991 0.4423581063747406 -0.10005699843168259 
v 0.5455352663993835 0.7855702042579651 -0.10005699843168259 
v 0.5455352663993835 0.4423581063747406 -0.10005699843168259 
v 0.19249896705150604 0.371287077665329 -0.10005699843168259 
v 0.19249896705150604 -0.0014506200095638633 -0.10005699843168259 
v 0.007299609947949648 -0.0014506200095638633 -0.10005699843168259 
v 0.007299609947949648 0.3721500337123871 -0.10005699843168259 
v 0.007299609947949648 0.44168007373809814 -0.10005699843168259 
v 0.19249896705150604 0.4397692084312439 -0.10005699843168259 
v 0.007299609947949648 0.7818101048469543 -0.10005699843168259 
v 0.19249896705150604 0.7818101048469543 -0.10005699843168259 
v 0.0015121300239115953 0.7824881672859192 0.6281229257583618 
v 0.0015121300239115953 0.4488303065299988 0.6281229257583618 
v 0.19249896705150604 0.7824881672859192 0.6281229257583618 
v 0.19249896705150604 0.4488303065299988 0.6281229257583618 
v 0.5455352663993835 0.3732595443725586 0.6281229257583618 
v 0.5455352663993835 0.0016313849482685328 0.6281229257583618 
v 0.7365220785140991 0.3732595443725586 0.6281229257583618 
v 0.7365220785140991 0.0016313849482685328 0.6281229257583618 
v 0.7365220785140991 0.44328269362449646 0.6281229257583618 
v 0.5455352663993835 0.44328269362449646 0.6281229257583618 
v 0.7365220785140991 0.7854468822479248 0.6281229257583618 
v 0.5455352663993835 0.7854468822479248 0.6281229257583618 
v 0.0015121300239115953 0.3737526834011078 0.6281229257583618 
v 0.19249896705150604 0.3737526834011078 0.6281229257583618 
v 0.19249896705150604 0.00002874240090022795 0.6281229257583618 
v 0.0015121300239115953 0.00002874240090022795 0.6281229257583618 
v 0.0015121300239115953 0.3737526834011078 0.4503782093524933 
v 0.0015121300239115953 0.4488303065299988 0.4503782093524933 
v 0.19249896705150604 0.3737526834011078 0.4503782093524933 
v 0.19249896705150604 0.4488303065299988 0.4503782093524933 
v 0.19249896705150604 0.7824881672859192 0.4503782093524933 
v 0.5455352663993835 0.0016313849482685328 0.4503782093524933 
v 0.5455352663993835 0.3732595443725586 0.4503782093524933 
v 0.7365220785140991 0.0016313849482685328 0.4503782093524933 
v 0.7365220785140991 0.3732595443725586 0.4503782093524933 
v 0.5455352663993835 0.44328269362449646 0.4503782093524933 
v 0.7365220785140991 0.44328269362449646 0.4503782093524933 
v 0.5455352663993835 -0.0014506200095638633 -0.10005699843168259 
v 0.5455352663993835 0.3671571910381317 -0.10005699843168259 
v 0.7365220785140991 -0.0014506200095638633 -0.10005699843168259 
v 0.7365220785140991 0.36845162510871887 -0.10005699843168259 
v 0.7365220785140991 0.7855702042579651 0.1006224974989891 
v 0.0015121300239115953 0.7824881672859192 0.4503782093524933 
vn 0.000000 0.000000 1.000000
vn 0.000000 0.000000 1.000000
vn 0.000000 0.000000 1.000000
vn 0.000000 0.000000 1.000000
vn 0.000000 0.000000 1.000000
vn 0.000000 0.000000 1.000000
vn 0.000000 0.000000 1.000000
vn 0.000000 0.000000 1.000000
vn 0.000000 0.000000 1.000000
vn 0.000000 0.000000 1.000000
vn 0.000000 0.000000 1.000000
vn 0.000000 0.000000 -1.000000
vn 0.000000 0.000000 -1.000000
vn 0.000000 0.000000 -1.000000
vn 0.000000 0.000000 -1.000000
vn 0.000000 0.000000 -1.000000
vn 0.000000 0.000000 -1.000000
vn 0.000000 0.000000 -1.000000
vn 0.000000 0.000000 -1.000000
vn 0.000000 0.000000 -1.000000
vn 0.000000 0.000000 -1.000000
vn 0.000000 0.000000 -1.000000
vn 0.000000 0.000000 -1.000000
vn 0.000000 0.000000 1.000000
vn 0.000000 0.000000 1.000000
vn 0.000000 0.000000 1.000000
vn 0.000000 0.000000 1.000000
vn 0.000000 0.000000 1.000000
vn 0.000000 0.000000 1.000000
vn 0.000000 0.000000 1.000000
vn 0.000000 0.000000 1.000000
vn 0.000000 0.000000 1.000000
vn 0.000000 0.000000 1.000000
vn 0.000000 0.000000 1.000000
vn 0.000000 0.000000 1.000000
vn 0.000000 0.000000 1.000000
vn 0.000000 0.000000 1.000000
vn 0.000000 0.000000 1.000000
vn 0.000000 0.000000 1.000000
vn 0.000000 0.000000 -1.000000
vn 0.000000 0.000000 -1.000000
vn 0.000000 0.000000 -1.000000
vn 0.000000 0.000000 -1.000000
vn 0.000000 0.000000 -1.000000
vn 0.000000 0.000000 -1.000000
vn 0.000000 0.000000 -1.000000
vn 0.000000 0.000000 -1.000000
vn 0.000000 0.000000 -1.000000
vn 0.000000 0.000000 -1.000000
vn 0.000000 0.000000 -1.000000
vn 0.000000 0.000000 -1.000000
vn 0.000000 0.000000 -1.000000
vn 0.000000 0.000000 -1.000000
vn 0.000000 0.000000 -1.000000
vn 0.000000 0.000000 1.000000
vn 0.000000 0.000000 -1.000000
f 137/136/137 138/136/138 139/136/139
f 138/136/138 140/136/140 139/136/139
f 138/136/138 141/136/141 140/136/140
f 141/136/141 142/136/142 140/136/140
f 141/136/141 143/136/143 142/136/142
f 143/136/143 144/136/144 142/136/142
f 144/136/144 143/136/143 145/136/145
f 143/136/143 146/136/146 145/136/145
f 145/136/145 146/136/146 147/136/147
f 148/136/148 149/136/149 150/136/150
f 149/136/149 151/136/151 150/136/150
f 150/136/150 151/136/151 152/136/152
f 151/136/151 153/136/153 152/136/152
f 152/136/152 153/136/153 154/136/154
f 154/136/154 155/136/155 152/136/152
f 155/136/155 156/136/156 152/136/152
f 152/136/152 156/136/156 157/136/157
f 156/136/156 158/136/158 157/136/157
f 157/136/157 158/136/158 159/136/159
f 160/136/160 161/136/161 162/136/162
f 161/136/161 163/136/163 162/136/162
f 162/136/162 163/136/163 164/136/164
f 163/136/163 165/136/165 164/136/164
f 164/136/164 165/136/165 166/136/166
f 165/136/165 167/136/167 166/136/166
f 166/136/166 168/136/168 164/136/164
f 168/136/168 169/136/169 164/136/164
f 168/136/168 170/136/170 169/136/169
f 170/136/170 171/136/171 169/136/169
f 161/136/161 172/136/172 163/136/163
f 172/136/172 173/136/173 163/136/163
f 173/136/173 172/136/172 174/136/174
f 172/136/172 175/136/175 174/136/174
f 176/136/176 177/136/177 178/136/178
f 177/136/177 179/136/179 178/136/178
f 177/136/177 180/136/180 179/136/179
f 180/136/180 181/136/181 179/136/179
f 180/136/180 182/136/182 181/136/181
f 182/136/182 183/136/183 181/136/181
f 183/136/183 182/136/182 184/136/184
f 182/136/182 185/136/185 184/136/184
f 184/136/184 185/136/185 186/136/186
f 187/136/187 188/136/188 189/136/189
f 188/136/188 190/136/190 189/136/189
f 188/136/188 151/136/151 190/136/190
f 151/136/151 149/136/149 190/136/190
f 138/136/138 191/136/191 141/136/141
f 177/136/177 192/136/192 180/136/180
