mtllib n64_logo.mtl
o CUText
usemtl Material.008
v 0.004579216241836548 -0.10000003566513449 0.781833286682633
v 0.19379352033138275 -0.10000003566513449 0.781833286682633
v 0.19379352033138275 0.09999996731509772 0.7818332954249108
v 0.004579216241836548 -0.10000003566513449 0.781833286682633
v 0.19379352033138275 0.09999996731509772 0.7818332954249108
v 0.004579216241836548 0.09999996731509772 0.7818332954249108
v 0.544579267501831 -0.10000003582958746 0.7855955318608556
v 0.736579179763794 -0.10000003582958746 0.7855955318608556
v 0.736579179763794 0.09999996715064476 0.7855955406031334
v 0.544579267501831 -0.10000003582958746 0.7855955318608556
v 0.736579179763794 0.09999996715064476 0.7855955406031334
v 0.544579267501831 0.09999996715064476 0.7855955406031334
v 0.736579179763794 -0.4480569705978296 0.7854655785211936
v 0.544579267501831 -0.4480569705978296 0.7854655785211936
v 0.544579267501831 -0.6281784520164444 0.7854656898571232
v 0.736579179763794 -0.4480569705978296 0.7854655785211936
v 0.544579267501831 -0.6281784520164444 0.7854656898571232
v 0.736579179763794 -0.6281784520164444 0.7854656898571232
v 0.19141951203346252 -0.6281783326762229 0.7824703180385859
v 0.19141951203346252 -0.4480568810599358 0.7824703259119445
v 0.0015704035758972168 -0.4480568810599358 0.7824703259119445
v 0.19141951203346252 -0.6281783326762229 0.7824703180385859
v 0.0015704035758972168 -0.4480568810599358 0.7824703259119445
v 0.0015704035758972168 -0.6281783326762229 0.7824703180385859
vn -0.6235048798780657 -0.3267373469703782 0.7102706321276403
vn 0.6252515167729366 -0.32768716746884047 0.7082948969528091
vn 0.578671914266286 0.5771153734317495 0.5762609316864405
vn -0.6235048798780657 -0.3267373469703782 0.7102706321276403
vn 0.578671914266286 0.5771153734317495 0.5762609316864405
vn -0.5773502691896262 0.5773502439528433 0.5773502944264067
vn -0.32777227899306544 -0.6230725160393095 0.7101731992127951
vn 0.5773502691896262 -0.5773502944264067 0.5773502439528433
vn 0.5773502691896262 0.5773502439528433 0.5773502944264067
vn -0.32777227899306544 -0.6230725160393095 0.7101731992127951
vn 0.5773502691896262 0.5773502439528433 0.5773502944264067
vn -0.3272861504373997 0.6245720604010786 0.709079344712719
vn 0.6228084117002103 0.33205050709624245 0.7084152334983979
vn -0.6234750024949605 0.33204796121803565 0.7078298331625015
vn -0.5773502691896262 -0.5773502944264067 0.5773502439528433
vn 0.6228084117002103 0.33205050709624245 0.7084152334983979
vn -0.5773502691896262 -0.5773502944264067 0.5773502439528433
vn 0.5773502691896262 -0.5773502944264067 0.5773502439528433
vn 0.3252121296571214 -0.6242998742787925 0.7102722982767692
vn 0.3252121296571214 0.6242998121848139 0.7102723528547946
vn -0.5773502691896262 0.5773502439528433 0.5773502944264067
vn 0.3252121296571214 -0.6242998742787925 0.7102722982767692
vn -0.5773502691896262 0.5773502439528433 0.5773502944264067
vn -0.5773502691896262 -0.5773502944264067 0.5773502439528433
f 1//1 2//2 3//3
f 4//4 5//5 6//6
f 7//7 8//8 9//9
f 10//10 11//11 12//12
f 13//13 14//14 15//15
f 16//16 17//17 18//18
f 19//19 20//20 21//21
f 22//22 23//23 24//24
o CUText_1
usemtl Material.005
v 0.544579267501831 -0.10000001754020643 0.367183263699082
v 0.544579267501831 0.09999998544002578 0.3671832724413598
v 0.5483888387680054 0.10000000155340506 -0.001447878132132231
v 0.544579267501831 -0.10000001754020643 0.367183263699082
v 0.5483888387680054 0.10000000155340506 -0.001447878132132231
v 0.5483888387680054 -0.10000000142682715 -0.0014478868744099743
v 0.19236454367637634 -0.10000002071167731 0.4397380606332098
v 0.19236454367637634 0.0999999822685549 0.4397380693754876
v 0.19379352033138275 0.09999996731509772 0.7818332954249108
v 0.19236454367637634 -0.10000002071167731 0.4397380606332098
v 0.19379352033138275 0.09999996731509772 0.7818332954249108
v 0.19379352033138275 -0.10000003566513449 0.781833286682633
v 0.19236454367637634 -0.10000002071167731 0.4397380606332098
v 0.19236454367637634 -0.10000001782011646 0.3735868589082037
v 0.19236454367637634 0.0999999852612379 0.37127346237513664
v 0.19236454367637634 -0.10000002071167731 0.4397380606332098
v 0.19236454367637634 0.0999999852612379 0.37127346237513664
v 0.19236454367637634 0.0999999822685549 0.4397380693754876
v 0.19320745766162872 -0.100000001426827 -0.0014478905997002728
v 0.004579216241836548 -0.100000001426827 -0.0014478905997002728
v 0.004579216241836548 0.10000000155340522 -0.0014478818574225295
v 0.19320745766162872 -0.100000001426827 -0.0014478905997002728
v 0.004579216241836548 0.10000000155340522 -0.0014478818574225295
v 0.19320745766162872 0.10000000155340522 -0.0014478818574225295
v 0.004579216241836548 -0.100000001426827 -0.0014478905997002728
v 0.004579216241836548 -0.10000001780859147 0.37332319776203976
v 0.004579216241836548 0.09999998522265711 0.3721560879549706
v 0.004579216241836548 -0.100000001426827 -0.0014478905997002728
v 0.004579216241836548 0.09999998522265711 0.3721560879549706
v 0.004579216241836548 0.10000000155340522 -0.0014478818574225295
v 0.544579267501831 -0.10000001754020643 0.367183263699082
v 0.544579267501831 -0.10000004317814015 0.44236257235195886
v 0.544579267501831 0.09999995980209206 0.4423625810942366
v 0.544579267501831 -0.10000001754020643 0.367183263699082
v 0.544579267501831 0.09999995980209206 0.4423625810942366
v 0.544579267501831 0.09999998544002578 0.3671832724413598
v 0.736579179763794 -0.10000004317814015 0.44236257235195886
v 0.736579179763794 0.09999995980209206 0.4423625810942366
v 0.736579179763794 0.09999996715064476 0.7855955406031334
v 0.736579179763794 -0.10000004317814015 0.44236257235195886
v 0.736579179763794 0.09999996715064476 0.7855955406031334
v 0.736579179763794 -0.10000003582958746 0.7855955318608556
v 0.736579179763794 -0.10000004317814015 0.44236257235195886
v 0.736579179763794 -0.10000001754976173 0.36740186373379574
v 0.736579179763794 0.0999999853847105 0.3684487386545861
v 0.736579179763794 -0.10000004317814015 0.44236257235195886
v 0.736579179763794 0.0999999853847105 0.3684487386545861
v 0.736579179763794 0.09999995980209206 0.4423625810942366
v 0.736579179763794 -0.100000001426827 -0.0014478905997002728
v 0.5483888387680054 -0.10000000142682715 -0.0014478868744099743
v 0.5483888387680054 0.10000000155340506 -0.001447878132132231
v 0.736579179763794 -0.100000001426827 -0.0014478905997002728
v 0.5483888387680054 0.10000000155340506 -0.001447878132132231
v 0.736579179763794 0.10000000155340522 -0.0014478818574225295
v 0.19379352033138275 -0.10000003566513449 0.781833286682633
v 0.19141951203346252 -0.44805698240472674 0.37377823420852446
v 0.19141951203346252 -0.44805705547440816 0.00002470144122476634
v 0.19379352033138275 -0.10000003566513449 0.781833286682633
v 0.19141951203346252 -0.44805705547440816 0.00002470144122476634
v 0.19236454367637634 -0.10000002071167731 0.4397380606332098
v 0.736579179763794 0.0999999853847105 0.3684487386545861
v 0.736579179763794 -0.10000001754976173 0.36740186373379574
v 0.736579179763794 -0.100000001426827 -0.0014478905997002728
v 0.736579179763794 0.0999999853847105 0.3684487386545861
v 0.736579179763794 -0.100000001426827 -0.0014478905997002728
v 0.736579179763794 0.10000000155340522 -0.0014478818574225295
v 0.544579267501831 0.09999996715064476 0.7855955406031334
v 0.19236454367637634 0.0999999852612379 0.37127346237513664
v 0.19236454367637634 -0.10000001782011646 0.3735868589082037
v 0.544579267501831 0.09999996715064476 0.7855955406031334
v 0.19236454367637634 -0.10000001782011646 0.3735868589082037
v 0.544579267501831 -0.10000003582958746 0.7855955318608556
v 0.544579267501831 -0.4480570555445565 0.0016295080730282787
v 0.736579179763794 -0.4480570555445565 0.0016295080730282787
v 0.736579179763794 -0.6281785369631671 0.0016295225514100964
v 0.544579267501831 -0.4480570555445565 0.0016295080730282787
v 0.736579179763794 -0.6281785369631671 0.0016295225514100964
v 0.544579267501831 -0.6281785369631671 0.0016295225514100964
v 0.736579179763794 -0.100000001426827 -0.0014478905997002728
v 0.736579179763794 -0.44805704504699245 0.44327090212195874
v 0.544579267501831 -0.44805704504699245 0.44327090212195874
v 0.736579179763794 -0.100000001426827 -0.0014478905997002728
v 0.544579267501831 -0.44805704504699245 0.44327090212195874
v 0.5483888387680054 -0.10000000142682715 -0.0014478868744099743
v 0.736579179763794 -0.10000001754976173 0.36740186373379574
v 0.736579179763794 -0.4480569705978296 0.7854655785211936
v 0.736579179763794 -0.44805704504699245 0.44327090212195874
v 0.736579179763794 -0.10000001754976173 0.36740186373379574
v 0.736579179763794 -0.44805704504699245 0.44327090212195874
v 0.736579179763794 -0.100000001426827 -0.0014478905997002728
v 0.736579179763794 -0.4480570555445565 0.0016295080730282787
v 0.736579179763794 -0.4480570419863632 0.3732518655905104
v 0.736579179763794 -0.6281784936026517 0.3732518875194741
v 0.736579179763794 -0.4480570555445565 0.0016295080730282787
v 0.736579179763794 -0.6281784936026517 0.3732518875194741
v 0.736579179763794 -0.6281785369631671 0.0016295225514100964
v 0.544579267501831 -0.4480570419863632 0.3732518655905104
v 0.544579267501831 -0.6281784936026517 0.3732518875194741
v 0.544579267501831 -0.628178496663281 0.44327092405092244
v 0.544579267501831 -0.4480570419863632 0.3732518655905104
v 0.544579267501831 -0.628178496663281 0.44327092405092244
v 0.544579267501831 -0.44805704504699245 0.44327090212195874
v 0.736579179763794 -0.6281784936026517 0.3732518875194741
v 0.736579179763794 -0.4480570419863632 0.3732518655905104
v 0.736579179763794 -0.44805704504699245 0.44327090212195874
v 0.736579179763794 -0.6281784936026517 0.3732518875194741
v 0.736579179763794 -0.44805704504699245 0.44327090212195874
v 0.736579179763794 -0.628178496663281 0.44327092405092244
v 0.5483888387680054 -0.10000000142682715 -0.0014478868744099743
v 0.544579267501831 -0.44805704504699245 0.44327090212195874
v 0.544579267501831 -0.4480569705978296 0.7854655785211936
v 0.5483888387680054 -0.10000000142682715 -0.0014478868744099743
v 0.544579267501831 -0.4480569705978296 0.7854655785211936
v 0.544579267501831 -0.10000001754020643 0.367183263699082
v 0.736579179763794 -0.628178496663281 0.44327092405092244
v 0.736579179763794 -0.44805704504699245 0.44327090212195874
v 0.736579179763794 -0.4480569705978296 0.7854655785211936
v 0.736579179763794 -0.628178496663281 0.44327092405092244
v 0.736579179763794 -0.4480569705978296 0.7854655785211936
v 0.736579179763794 -0.6281784520164444 0.7854656898571232
v 0.19141951203346252 -0.6281784340210165 0.37377828593981055
v 0.19141951203346252 -0.44805698240472674 0.37377823420852446
v 0.19141951203346252 -0.44805698568557495 0.44883529373496794
v 0.19141951203346252 -0.6281784340210165 0.37377828593981055
v 0.19141951203346252 -0.44805698568557495 0.44883529373496794
v 0.19141951203346252 -0.6281784373018647 0.44883534546625403
v 0.0015704035758972168 -0.44805705547440816 0.00002470144122476634
v 0.0015704035758972168 -0.6281784772883743 0.00002472337018978636
v 0.0015704035758972168 -0.6281784340210165 0.37377828593981055
v 0.0015704035758972168 -0.44805705547440816 0.00002470144122476634
v 0.0015704035758972168 -0.6281784340210165 0.37377828593981055
v 0.0015704035758972168 -0.44805698240472674 0.37377823420852446
v 0.19141951203346252 -0.44805705547440816 0.00002470144122476634
v 0.19141951203346252 -0.6281784772883743 0.00002472337018978636
v 0.0015704035758972168 -0.6281784772883743 0.00002472337018978636
v 0.19141951203346252 -0.44805705547440816 0.00002470144122476634
v 0.0015704035758972168 -0.6281784772883743 0.00002472337018978636
v 0.0015704035758972168 -0.44805705547440816 0.00002470144122476634
v 0.0015704035758972168 -0.44805698240472674 0.37377823420852446
v 0.0015704035758972168 -0.6281784340210165 0.37377828593981055
v 0.0015704035758972168 -0.6281784373018647 0.44883534546625403
v 0.0015704035758972168 -0.44805698240472674 0.37377823420852446
v 0.0015704035758972168 -0.6281784373018647 0.44883534546625403
v 0.0015704035758972168 -0.44805698568557495 0.44883529373496794
v 0.0015704035758972168 -0.44805698568557495 0.44883529373496794
v 0.0015704035758972168 -0.6281784373018647 0.44883534546625403
v 0.0015704035758972168 -0.6281783326762229 0.7824703180385859
v 0.0015704035758972168 -0.44805698568557495 0.44883529373496794
v 0.0015704035758972168 -0.6281783326762229 0.7824703180385859
v 0.0015704035758972168 -0.4480568810599358 0.7824703259119445
v 0.544579267501831 -0.4480570419863632 0.3732518655905104
v 0.19141951203346252 -0.4480568810599358 0.7824703259119445
v 0.19141951203346252 -0.6281783326762229 0.7824703180385859
v 0.544579267501831 -0.4480570419863632 0.3732518655905104
v 0.19141951203346252 -0.6281783326762229 0.7824703180385859
v 0.544579267501831 -0.6281784936026517 0.3732518875194741
v 0.004579216241836548 0.09999998218225488 0.44171238382670525
v 0.004579216241836548 -0.10000002079770247 0.44170608679440365
v 0.004579216241836548 -0.10000003566513449 0.781833286682633
v 0.004579216241836548 0.09999998218225488 0.44171238382670525
v 0.004579216241836548 -0.10000003566513449 0.781833286682633
v 0.004579216241836548 0.09999996731509772 0.7818332954249108
v 0.004579216241836548 0.09999998522265711 0.3721560879549706
v 0.004579216241836548 -0.10000001780859147 0.37332319776203976
v 0.004579216241836548 -0.10000002079770247 0.44170608679440365
v 0.004579216241836548 0.09999998522265711 0.3721560879549706
v 0.004579216241836548 -0.10000002079770247 0.44170608679440365
v 0.004579216241836548 0.09999998218225488 0.44171238382670525
v 0.004579216241836548 -0.10000002079770247 0.44170608679440365
v 0.0015704035758972168 -0.44805705547440816 0.00002470144122476634
v 0.0015704035758972168 -0.44805698240472674 0.37377823420852446
v 0.004579216241836548 -0.10000002079770247 0.44170608679440365
v 0.0015704035758972168 -0.44805698240472674 0.37377823420852446
v 0.004579216241836548 -0.10000003566513449 0.781833286682633
v 0.19236454367637634 -0.10000002071167731 0.4397380606332098
v 0.19141951203346252 -0.44805705547440816 0.00002470144122476634
v 0.0015704035758972168 -0.44805705547440816 0.00002470144122476634
v 0.19236454367637634 -0.10000002071167731 0.4397380606332098
v 0.0015704035758972168 -0.44805705547440816 0.00002470144122476634
v 0.004579216241836548 -0.10000002079770247 0.44170608679440365
v 0.19141951203346252 -0.44805705547440816 0.00002470144122476634
v 0.19141951203346252 -0.44805698240472674 0.37377823420852446
v 0.19141951203346252 -0.6281784340210165 0.37377828593981055
v 0.19141951203346252 -0.44805705547440816 0.00002470144122476634
v 0.19141951203346252 -0.6281784340210165 0.37377828593981055
v 0.19141951203346252 -0.6281784772883743 0.00002472337018978636
v 0.544579267501831 -0.44805704504699245 0.44327090212195874
v 0.544579267501831 -0.628178496663281 0.44327092405092244
v 0.544579267501831 -0.6281784520164444 0.7854656898571232
v 0.544579267501831 -0.44805704504699245 0.44327090212195874
v 0.544579267501831 -0.6281784520164444 0.7854656898571232
v 0.544579267501831 -0.4480569705978296 0.7854655785211936
vn -0.983088668133608 -0.06433476485714125 0.17145760005921382
vn -0.7082609240628862 0.7059414095663651 -0.0036317633512871327
vn -0.5740997969098737 0.5778842400950907 -0.5800510565784375
vn -0.983088668133608 -0.06433476485714125 0.17145760005921382
vn -0.5740997969098737 0.5778842400950907 -0.5800510565784375
vn -0.6172527172499046 -0.34334203694944637 -0.7078949983655872
vn 0.9829578234431839 -0.061190704591139546 -0.17334824776581598
vn 0.7066328418117832 0.7075788867833077 -0.0014648725195346949
vn 0.578671914266286 0.5771153734317495 0.5762609316864405
vn 0.9829578234431839 -0.061190704591139546 -0.17334824776581598
vn 0.578671914266286 0.5771153734317495 0.5762609316864405
vn 0.6252515167729366 -0.32768716746884047 0.7082948969528091
vn 0.9829578234431839 -0.061190704591139546 -0.17334824776581598
vn 0.0669898643398413 -0.9812870631680359 0.18052162677856806
vn 0.06512692713506972 0.9818479625053002 0.17813776097765993
vn 0.9829578234431839 -0.061190704591139546 -0.17334824776581598
vn 0.06512692713506972 0.9818479625053002 0.17813776097765993
vn 0.7066328418117832 0.7075788867833077 -0.0014648725195346949
vn 0.3413285022510164 -0.6209773122856641 -0.7056075617349566
vn -0.5773502691896262 -0.5773502439528433 -0.5773502944264067
vn -0.5773502691896262 0.5773502944264067 -0.5773502439528433
vn 0.3413285022510164 -0.6209773122856641 -0.7056075617349566
vn -0.5773502691896262 0.5773502944264067 -0.5773502439528433
vn 0.3413285022510164 0.6209773739718337 -0.7056075074473935
vn -0.5773502691896262 -0.5773502439528433 -0.5773502944264067
vn -0.7071067811865478 -0.7071067811865465 -3.0908618915621354e-8
vn -0.7071067811865478 0.7071067811865465 3.0908618915621354e-8
vn -0.5773502691896262 -0.5773502439528433 -0.5773502944264067
vn -0.7071067811865478 0.7071067811865465 3.0908618915621354e-8
vn -0.5773502691896262 0.5773502944264067 -0.5773502439528433
vn -0.983088668133608 -0.06433476485714125 0.17145760005921382
vn -0.05942075559676361 -0.9835096291462667 -0.17081564091406481
vn -0.05942075559676361 0.9835096440794404 -0.17081555493292203
vn -0.983088668133608 -0.06433476485714125 0.17145760005921382
vn -0.05942075559676361 0.9835096440794404 -0.17081555493292203
vn -0.7082609240628862 0.7059414095663651 -0.0036317633512871327
vn 0.7071067811865478 -0.7071067811865465 -3.0908618915621354e-8
vn 0.7071067811865478 0.7071067811865465 3.0908618915621354e-8
vn 0.5773502691896262 0.5773502439528433 0.5773502944264067
vn 0.7071067811865478 -0.7071067811865465 -3.0908618915621354e-8
vn 0.5773502691896262 0.5773502439528433 0.5773502944264067
vn 0.5773502691896262 -0.5773502944264067 0.5773502439528433
vn 0.7071067811865478 -0.7071067811865465 -3.0908618915621354e-8
vn 0.982185274427663 -0.06393681300338584 0.17670362373314863
vn 0.7071067811865478 0.7071067811865465 3.0908618915621354e-8
vn 0.7071067811865478 -0.7071067811865465 -3.0908618915621354e-8
vn 0.7071067811865478 0.7071067811865465 3.0908618915621354e-8
vn 0.7071067811865478 0.7071067811865465 3.0908618915621354e-8
vn 0.6205412373041054 -0.34345994217252757 -0.7049566234371687
vn -0.6172527172499046 -0.34334203694944637 -0.7078949983655872
vn -0.5740997969098737 0.5778842400950907 -0.5800510565784375
vn 0.6205412373041054 -0.34345994217252757 -0.7049566234371687
vn -0.5740997969098737 0.5778842400950907 -0.5800510565784375
vn 0.5773502691896262 0.5773502944264067 -0.5773502439528433
vn 0.6252515167729366 -0.32768716746884047 0.7082948969528091
vn 0.9817154033610566 0.06451785634284646 0.17908744516733024
vn 0.6199346765036895 0.3417835535653028 -0.7063037585773841
vn 0.6252515167729366 -0.32768716746884047 0.7082948969528091
vn 0.6199346765036895 0.3417835535653028 -0.7063037585773841
vn 0.9829578234431839 -0.061190704591139546 -0.17334824776581598
vn 0.7071067811865478 0.7071067811865465 3.0908618915621354e-8
vn 0.982185274427663 -0.06393681300338584 0.17670362373314863
vn 0.6205412373041054 -0.34345994217252757 -0.7049566234371687
vn 0.7071067811865478 0.7071067811865465 3.0908618915621354e-8
vn 0.6205412373041054 -0.34345994217252757 -0.7049566234371687
vn 0.5773502691896262 0.5773502944264067 -0.5773502439528433
vn -0.3272861504373997 0.6245720604010786 0.709079344712719
vn 0.06512692713506972 0.9818479625053002 0.17813776097765993
vn 0.0669898643398413 -0.9812870631680359 0.18052162677856806
vn -0.3272861504373997 0.6245720604010786 0.709079344712719
vn 0.0669898643398413 -0.9812870631680359 0.18052162677856806
vn -0.32777227899306544 -0.6230725160393095 0.7101731992127951
vn -0.3418160251619765 0.6208844261983598 -0.7054532828237462
vn 0.5773502691896262 0.5773502944264067 -0.5773502439528433
vn 0.5773502691896262 -0.5773502439528433 -0.5773502944264067
vn -0.3418160251619765 0.6208844261983598 -0.7054532828237462
vn 0.5773502691896262 -0.5773502439528433 -0.5773502944264067
vn -0.3418160251619765 -0.6208843645256729 -0.7054533371031838
vn 0.6205412373041054 -0.34345994217252757 -0.7049566234371687
vn 0.9838008833137125 0.058443322452905094 -0.1694703515421646
vn -0.9835074489564599 0.05884076624904588 -0.1710288340437997
vn 0.6205412373041054 -0.34345994217252757 -0.7049566234371687
vn -0.9835074489564599 0.05884076624904588 -0.1710288340437997
vn -0.6172527172499046 -0.34334203694944637 -0.7078949983655872
vn 0.982185274427663 -0.06393681300338584 0.17670362373314863
vn 0.6228084117002103 0.33205050709624245 0.7084152334983979
vn 0.9838008833137125 0.058443322452905094 -0.1694703515421646
vn 0.982185274427663 -0.06393681300338584 0.17670362373314863
vn 0.9838008833137125 0.058443322452905094 -0.1694703515421646
vn 0.6205412373041054 -0.34345994217252757 -0.7049566234371687
vn 0.5773502691896262 0.5773502944264067 -0.5773502439528433
vn 0.7071067811865478 0.7071067811865465 3.0908618915621354e-8
vn 0.7071067811865478 -0.7071067811865465 -3.0908618915621354e-8
vn 0.5773502691896262 0.5773502944264067 -0.5773502439528433
vn 0.7071067811865478 -0.7071067811865465 -3.0908618915621354e-8
vn 0.5773502691896262 -0.5773502439528433 -0.5773502944264067
vn -0.06720396727968736 0.9812328519830646 0.18073659555013155
vn -0.06720396727968736 -0.9812328677835558 0.1807365097680309
vn -0.7071067811865478 -0.7071067811865465 -3.0908618915621354e-8
vn -0.06720396727968736 0.9812328519830646 0.18073659555013155
vn -0.7071067811865478 -0.7071067811865465 -3.0908618915621354e-8
vn -0.9835074489564599 0.05884076624904588 -0.1710288340437997
vn 0.7071067811865478 -0.7071067811865465 -3.0908618915621354e-8
vn 0.7071067811865478 0.7071067811865465 3.0908618915621354e-8
vn 0.9838008833137125 0.058443322452905094 -0.1694703515421646
vn 0.7071067811865478 -0.7071067811865465 -3.0908618915621354e-8
vn 0.9838008833137125 0.058443322452905094 -0.1694703515421646
vn 0.7071067811865478 -0.7071067811865465 -3.0908618915621354e-8
vn -0.6172527172499046 -0.34334203694944637 -0.7078949983655872
vn -0.9835074489564599 0.05884076624904588 -0.1710288340437997
vn -0.6234750024949605 0.33204796121803565 0.7078298331625015
vn -0.6172527172499046 -0.34334203694944637 -0.7078949983655872
vn -0.6234750024949605 0.33204796121803565 0.7078298331625015
vn -0.983088668133608 -0.06433476485714125 0.17145760005921382
vn 0.7071067811865478 -0.7071067811865465 -3.0908618915621354e-8
vn 0.9838008833137125 0.058443322452905094 -0.1694703515421646
vn 0.6228084117002103 0.33205050709624245 0.7084152334983979
vn 0.7071067811865478 -0.7071067811865465 -3.0908618915621354e-8
vn 0.6228084117002103 0.33205050709624245 0.7084152334983979
vn 0.5773502691896262 -0.5773502944264067 0.5773502439528433
vn 0.7071067811865478 -0.7071067811865465 -3.0908618915621354e-8
vn 0.9817154033610566 0.06451785634284646 0.17908744516733024
vn 0.05920740096853302 0.9835753293034067 -0.17051115874407266
vn 0.7071067811865478 -0.7071067811865465 -3.0908618915621354e-8
vn 0.05920740096853302 0.9835753293034067 -0.17051115874407266
vn 0.059207400968533004 -0.9835753143968441 -0.1705112447309578
vn -0.6218670848679734 0.3421551132227189 -0.7044226055808809
vn -0.5773502691896262 -0.5773502439528433 -0.5773502944264067
vn -0.7071067811865478 -0.7071067811865465 -3.0908618915621354e-8
vn -0.6218670848679734 0.3421551132227189 -0.7044226055808809
vn -0.7071067811865478 -0.7071067811865465 -3.0908618915621354e-8
vn -0.9813668437469835 0.07055976741938452 0.17871887761455382
vn 0.6199346765036895 0.3417835535653028 -0.7063037585773841
vn 0.5773502691896262 -0.5773502439528433 -0.5773502944264067
vn -0.5773502691896262 -0.5773502439528433 -0.5773502944264067
vn 0.6199346765036895 0.3417835535653028 -0.7063037585773841
vn -0.5773502691896262 -0.5773502439528433 -0.5773502944264067
vn -0.6218670848679734 0.3421551132227189 -0.7044226055808809
vn -0.9813668437469835 0.07055976741938452 0.17871887761455382
vn -0.7071067811865478 -0.7071067811865465 -3.0908618915621354e-8
vn -0.7071067811865478 -0.7071067811865465 -3.0908618915621354e-8
vn -0.9813668437469835 0.07055976741938452 0.17871887761455382
vn -0.7071067811865478 -0.7071067811865465 -3.0908618915621354e-8
vn -0.7071067811865478 0.7071067811865465 3.0908618915621354e-8
vn -0.7071067811865478 0.7071067811865465 3.0908618915621354e-8
vn -0.7071067811865478 -0.7071067811865465 -3.0908618915621354e-8
vn -0.5773502691896262 -0.5773502944264067 0.5773502439528433
vn -0.7071067811865478 0.7071067811865465 3.0908618915621354e-8
vn -0.5773502691896262 -0.5773502944264067 0.5773502439528433
vn -0.5773502691896262 0.5773502439528433 0.5773502944264067
vn -0.06720396727968736 0.9812328519830646 0.18073659555013155
vn 0.3252121296571214 0.6242998121848139 0.7102723528547946
vn 0.3252121296571214 -0.6242998742787925 0.7102722982767692
vn -0.06720396727968736 0.9812328519830646 0.18073659555013155
vn 0.3252121296571214 -0.6242998742787925 0.7102722982767692
vn -0.06720396727968736 -0.9812328677835558 0.1807365097680309
vn -0.7071067811865478 0.7071067811865465 3.0908618915621354e-8
vn -0.983944172558549 -0.053988739584623385 -0.17011490612564184
vn -0.6235048798780657 -0.3267373469703782 0.7102706321276403
vn -0.7071067811865478 0.7071067811865465 3.0908618915621354e-8
vn -0.6235048798780657 -0.3267373469703782 0.7102706321276403
vn -0.5773502691896262 0.5773502439528433 0.5773502944264067
vn -0.7071067811865478 0.7071067811865465 3.0908618915621354e-8
vn -0.7071067811865478 -0.7071067811865465 -3.0908618915621354e-8
vn -0.983944172558549 -0.053988739584623385 -0.17011490612564184
vn -0.7071067811865478 0.7071067811865465 3.0908618915621354e-8
vn -0.983944172558549 -0.053988739584623385 -0.17011490612564184
vn -0.7071067811865478 0.7071067811865465 3.0908618915621354e-8
vn -0.983944172558549 -0.053988739584623385 -0.17011490612564184
vn -0.6218670848679734 0.3421551132227189 -0.7044226055808809
vn -0.9813668437469835 0.07055976741938452 0.17871887761455382
vn -0.983944172558549 -0.053988739584623385 -0.17011490612564184
vn -0.9813668437469835 0.07055976741938452 0.17871887761455382
vn -0.6235048798780657 -0.3267373469703782 0.7102706321276403
vn 0.9829578234431839 -0.061190704591139546 -0.17334824776581598
vn 0.6199346765036895 0.3417835535653028 -0.7063037585773841
vn -0.6218670848679734 0.3421551132227189 -0.7044226055808809
vn 0.9829578234431839 -0.061190704591139546 -0.17334824776581598
vn -0.6218670848679734 0.3421551132227189 -0.7044226055808809
vn -0.983944172558549 -0.053988739584623385 -0.17011490612564184
vn 0.6199346765036895 0.3417835535653028 -0.7063037585773841
vn 0.9817154033610566 0.06451785634284646 0.17908744516733024
vn 0.7071067811865478 -0.7071067811865465 -3.0908618915621354e-8
vn 0.6199346765036895 0.3417835535653028 -0.7063037585773841
vn 0.7071067811865478 -0.7071067811865465 -3.0908618915621354e-8
vn 0.5773502691896262 -0.5773502439528433 -0.5773502944264067
vn -0.9835074489564599 0.05884076624904588 -0.1710288340437997
vn -0.7071067811865478 -0.7071067811865465 -3.0908618915621354e-8
vn -0.5773502691896262 -0.5773502944264067 0.5773502439528433
vn -0.9835074489564599 0.05884076624904588 -0.1710288340437997
vn -0.5773502691896262 -0.5773502944264067 0.5773502439528433
vn -0.6234750024949605 0.33204796121803565 0.7078298331625015
f 25//25 26//26 27//27
f 28//28 29//29 30//30
f 31//31 32//32 33//33
f 34//34 35//35 36//36
f 37//37 38//38 39//39
f 40//40 41//41 42//42
f 43//43 44//44 45//45
f 46//46 47//47 48//48
f 49//49 50//50 51//51
f 52//52 53//53 54//54
f 55//55 56//56 57//57
f 58//58 59//59 60//60
f 61//61 62//62 63//63
f 64//64 65//65 66//66
f 67//67 68//68 69//69
f 70//70 71//71 72//72
f 73//73 74//74 75//75
f 76//76 77//77 78//78
f 79//79 80//80 81//81
f 82//82 83//83 84//84
f 85//85 86//86 87//87
f 88//88 89//89 90//90
f 91//91 92//92 93//93
f 94//94 95//95 96//96
f 97//97 98//98 99//99
f 100//100 101//101 102//102
f 103//103 104//104 105//105
f 106//106 107//107 108//108
f 109//109 110//110 111//111
f 112//112 113//113 114//114
f 115//115 116//116 117//117
f 118//118 119//119 120//120
f 121//121 122//122 123//123
f 124//124 125//125 126//126
f 127//127 128//128 129//129
f 130//130 131//131 132//132
f 133//133 134//134 135//135
f 136//136 137//137 138//138
f 139//139 140//140 141//141
f 142//142 143//143 144//144
f 145//145 146//146 147//147
f 148//148 149//149 150//150
f 151//151 152//152 153//153
f 154//154 155//155 156//156
f 157//157 158//158 159//159
f 160//160 161//161 162//162
f 163//163 164//164 165//165
f 166//166 167//167 168//168
f 169//169 170//170 171//171
f 172//172 173//173 174//174
f 175//175 176//176 177//177
f 178//178 179//179 180//180
f 181//181 182//182 183//183
f 184//184 185//185 186//186
f 187//187 188//188 189//189
f 190//190 191//191 192//192
f 193//193 194//194 195//195
f 196//196 197//197 198//198
f 199//199 200//200 201//201
f 202//202 203//203 204//204
f 205//205 206//206 207//207
f 208//208 209//209 210//210
f 211//211 212//212 213//213
f 214//214 215//215 216//216
o CUText_2
usemtl Material.007
v 0.544579267501831 -0.10000004317814015 0.44236257235195886
v 0.19320745766162872 -0.100000001426827 -0.0014478905997002728
v 0.19320745766162872 0.10000000155340522 -0.0014478818574225295
v 0.544579267501831 -0.10000004317814015 0.44236257235195886
v 0.19320745766162872 0.10000000155340522 -0.0014478818574225295
v 0.544579267501831 0.09999995980209206 0.4423625810942366
v 0.544579267501831 -0.10000001754020643 0.367183263699082
v 0.544579267501831 -0.4480569705978296 0.7854655785211936
v 0.736579179763794 -0.4480569705978296 0.7854655785211936
v 0.544579267501831 -0.10000001754020643 0.367183263699082
v 0.736579179763794 -0.4480569705978296 0.7854655785211936
v 0.736579179763794 -0.10000001754976173 0.36740186373379574
v 0.004579216241836548 -0.10000003566513449 0.781833286682633
v 0.0015704035758972168 -0.44805698240472674 0.37377823420852446
v 0.19141951203346252 -0.44805698240472674 0.37377823420852446
v 0.004579216241836548 -0.10000003566513449 0.781833286682633
v 0.19141951203346252 -0.44805698240472674 0.37377823420852446
v 0.19379352033138275 -0.10000003566513449 0.781833286682633
v 0.544579267501831 -0.6281785369631671 0.0016295225514100964
v 0.19141951203346252 -0.6281784373018647 0.44883534546625403
v 0.19141951203346252 -0.44805698568557495 0.44883529373496794
v 0.544579267501831 -0.6281785369631671 0.0016295225514100964
v 0.19141951203346252 -0.44805698568557495 0.44883529373496794
v 0.544579267501831 -0.4480570555445565 0.0016295080730282787
vn -0.05942075559676361 -0.9835096291462667 -0.17081564091406481
vn 0.3413285022510164 -0.6209773122856641 -0.7056075617349566
vn 0.3413285022510164 0.6209773739718337 -0.7056075074473935
vn -0.05942075559676361 -0.9835096291462667 -0.17081564091406481
vn 0.3413285022510164 0.6209773739718337 -0.7056075074473935
vn -0.05942075559676361 0.9835096440794404 -0.17081555493292203
vn -0.983088668133608 -0.06433476485714125 0.17145760005921382
vn -0.6234750024949605 0.33204796121803565 0.7078298331625015
vn 0.6228084117002103 0.33205050709624245 0.7084152334983979
vn -0.983088668133608 -0.06433476485714125 0.17145760005921382
vn 0.6228084117002103 0.33205050709624245 0.7084152334983979
vn 0.982185274427663 -0.06393681300338584 0.17670362373314863
vn -0.6235048798780657 -0.3267373469703782 0.7102706321276403
vn -0.9813668437469835 0.07055976741938452 0.17871887761455382
vn 0.9817154033610566 0.06451785634284646 0.17908744516733024
vn -0.6235048798780657 -0.3267373469703782 0.7102706321276403
vn 0.9817154033610566 0.06451785634284646 0.17908744516733024
vn 0.6252515167729366 -0.32768716746884047 0.7082948969528091
vn -0.3418160251619765 -0.6208843645256729 -0.7054533371031838
vn 0.059207400968533004 -0.9835753143968441 -0.1705112447309578
vn 0.05920740096853302 0.9835753293034067 -0.17051115874407266
vn -0.3418160251619765 -0.6208843645256729 -0.7054533371031838
vn 0.05920740096853302 0.9835753293034067 -0.17051115874407266
vn -0.3418160251619765 0.6208844261983598 -0.7054532828237462
f 217//217 218//218 219//219
f 220//220 221//221 222//222
f 223//223 224//224 225//225
f 226//226 227//227 228//228
f 229//229 230//230 231//231
f 232//232 233//233 234//234
f 235//235 236//236 237//237
f 238//238 239//239 240//240
o CUText_3
usemtl Material.009
v 0.736579179763794 -0.10000004317814015 0.44236257235195886
v 0.544579267501831 -0.10000004317814015 0.44236257235195886
v 0.544579267501831 -0.10000001754020643 0.367183263699082
v 0.736579179763794 -0.10000004317814015 0.44236257235195886
v 0.544579267501831 -0.10000001754020643 0.367183263699082
v 0.736579179763794 -0.10000001754976173 0.36740186373379574
v 0.004579216241836548 0.10000000155340522 -0.0014478818574225295
v 0.004579216241836548 0.09999998522265711 0.3721560879549706
v 0.19236454367637634 0.0999999852612379 0.37127346237513664
v 0.004579216241836548 0.10000000155340522 -0.0014478818574225295
v 0.19236454367637634 0.0999999852612379 0.37127346237513664
v 0.19320745766162872 0.10000000155340522 -0.0014478818574225295
v 0.544579267501831 0.09999998544002578 0.3671832724413598
v 0.736579179763794 0.0999999853847105 0.3684487386545861
v 0.736579179763794 0.10000000155340522 -0.0014478818574225295
v 0.544579267501831 0.09999998544002578 0.3671832724413598
v 0.736579179763794 0.10000000155340522 -0.0014478818574225295
v 0.5483888387680054 0.10000000155340506 -0.001447878132132231
v 0.19236454367637634 -0.10000002071167731 0.4397380606332098
v 0.004579216241836548 -0.10000002079770247 0.44170608679440365
v 0.004579216241836548 -0.10000001780859147 0.37332319776203976
v 0.19236454367637634 -0.10000002071167731 0.4397380606332098
v 0.004579216241836548 -0.10000001780859147 0.37332319776203976
v 0.19236454367637634 -0.10000001782011646 0.3735868589082037
v 0.544579267501831 -0.10000003582958746 0.7855955318608556
v 0.19236454367637634 -0.10000001782011646 0.3735868589082037
v 0.19320745766162872 -0.100000001426827 -0.0014478905997002728
v 0.544579267501831 -0.10000003582958746 0.7855955318608556
v 0.19320745766162872 -0.100000001426827 -0.0014478905997002728
v 0.544579267501831 -0.10000004317814015 0.44236257235195886
v 0.736579179763794 0.0999999853847105 0.3684487386545861
v 0.544579267501831 0.09999998544002578 0.3671832724413598
v 0.544579267501831 0.09999995980209206 0.4423625810942366
v 0.736579179763794 0.0999999853847105 0.3684487386545861
v 0.544579267501831 0.09999995980209206 0.4423625810942366
v 0.736579179763794 0.09999995980209206 0.4423625810942366
v 0.004579216241836548 -0.100000001426827 -0.0014478905997002728
v 0.19320745766162872 -0.100000001426827 -0.0014478905997002728
v 0.19236454367637634 -0.10000001782011646 0.3735868589082037
v 0.004579216241836548 -0.100000001426827 -0.0014478905997002728
v 0.19236454367637634 -0.10000001782011646 0.3735868589082037
v 0.004579216241836548 -0.10000001780859147 0.37332319776203976
v 0.736579179763794 0.09999995980209206 0.4423625810942366
v 0.544579267501831 0.09999995980209206 0.4423625810942366
v 0.544579267501831 0.09999996715064476 0.7855955406031334
v 0.736579179763794 0.09999995980209206 0.4423625810942366
v 0.544579267501831 0.09999996715064476 0.7855955406031334
v 0.736579179763794 0.09999996715064476 0.7855955406031334
v 0.736579179763794 -0.10000004317814015 0.44236257235195886
v 0.736579179763794 -0.10000003582958746 0.7855955318608556
v 0.544579267501831 -0.10000003582958746 0.7855955318608556
v 0.736579179763794 -0.10000004317814015 0.44236257235195886
v 0.544579267501831 -0.10000003582958746 0.7855955318608556
v 0.544579267501831 -0.10000004317814015 0.44236257235195886
v 0.544579267501831 -0.6281785369631671 0.0016295225514100964
v 0.736579179763794 -0.6281785369631671 0.0016295225514100964
v 0.736579179763794 -0.6281784936026517 0.3732518875194741
v 0.544579267501831 -0.6281785369631671 0.0016295225514100964
v 0.736579179763794 -0.6281784936026517 0.3732518875194741
v 0.544579267501831 -0.6281784936026517 0.3732518875194741
v 0.544579267501831 -0.6281784936026517 0.3732518875194741
v 0.19141951203346252 -0.6281783326762229 0.7824703180385859
v 0.19141951203346252 -0.6281784373018647 0.44883534546625403
v 0.544579267501831 -0.6281784936026517 0.3732518875194741
v 0.19141951203346252 -0.6281784373018647 0.44883534546625403
v 0.544579267501831 -0.6281785369631671 0.0016295225514100964
v 0.544579267501831 -0.6281784936026517 0.3732518875194741
v 0.736579179763794 -0.6281784936026517 0.3732518875194741
v 0.736579179763794 -0.628178496663281 0.44327092405092244
v 0.544579267501831 -0.6281784936026517 0.3732518875194741
v 0.736579179763794 -0.628178496663281 0.44327092405092244
v 0.544579267501831 -0.628178496663281 0.44327092405092244
v 0.736579179763794 -0.4480570419863632 0.3732518655905104
v 0.544579267501831 -0.4480570419863632 0.3732518655905104
v 0.544579267501831 -0.44805704504699245 0.44327090212195874
v 0.736579179763794 -0.4480570419863632 0.3732518655905104
v 0.544579267501831 -0.44805704504699245 0.44327090212195874
v 0.736579179763794 -0.44805704504699245 0.44327090212195874
v 0.544579267501831 -0.628178496663281 0.44327092405092244
v 0.736579179763794 -0.628178496663281 0.44327092405092244
v 0.736579179763794 -0.6281784520164444 0.7854656898571232
v 0.544579267501831 -0.628178496663281 0.44327092405092244
v 0.736579179763794 -0.6281784520164444 0.7854656898571232
v 0.544579267501831 -0.6281784520164444 0.7854656898571232
v 0.19141951203346252 -0.6281784772883743 0.00002472337018978636
v 0.19141951203346252 -0.6281784340210165 0.37377828593981055
v 0.0015704035758972168 -0.6281784340210165 0.37377828593981055
v 0.19141951203346252 -0.6281784772883743 0.00002472337018978636
v 0.0015704035758972168 -0.6281784340210165 0.37377828593981055
v 0.0015704035758972168 -0.6281784772883743 0.00002472337018978636
v 0.0015704035758972168 -0.6281784373018647 0.44883534546625403
v 0.19141951203346252 -0.6281784373018647 0.44883534546625403
v 0.19141951203346252 -0.6281783326762229 0.7824703180385859
v 0.0015704035758972168 -0.6281784373018647 0.44883534546625403
v 0.19141951203346252 -0.6281783326762229 0.7824703180385859
v 0.0015704035758972168 -0.6281783326762229 0.7824703180385859
v 0.19141951203346252 -0.44805698240472674 0.37377823420852446
v 0.0015704035758972168 -0.44805698240472674 0.37377823420852446
v 0.0015704035758972168 -0.44805698568557495 0.44883529373496794
v 0.19141951203346252 -0.44805698240472674 0.37377823420852446
v 0.0015704035758972168 -0.44805698568557495 0.44883529373496794
v 0.19141951203346252 -0.44805698568557495 0.44883529373496794
v 0.0015704035758972168 -0.6281784340210165 0.37377828593981055
v 0.19141951203346252 -0.6281784340210165 0.37377828593981055
v 0.19141951203346252 -0.6281784373018647 0.44883534546625403
v 0.0015704035758972168 -0.6281784340210165 0.37377828593981055
v 0.19141951203346252 -0.6281784373018647 0.44883534546625403
v 0.0015704035758972168 -0.6281784373018647 0.44883534546625403
v 0.0015704035758972168 -0.44805698568557495 0.44883529373496794
v 0.0015704035758972168 -0.4480568810599358 0.7824703259119445
v 0.19141951203346252 -0.4480568810599358 0.7824703259119445
v 0.0015704035758972168 -0.44805698568557495 0.44883529373496794
v 0.19141951203346252 -0.4480568810599358 0.7824703259119445
v 0.19141951203346252 -0.44805698568557495 0.44883529373496794
v 0.19236454367637634 0.0999999822685549 0.4397380693754876
v 0.004579216241836548 0.09999998218225488 0.44171238382670525
v 0.004579216241836548 0.09999996731509772 0.7818332954249108
v 0.19236454367637634 0.0999999822685549 0.4397380693754876
v 0.004579216241836548 0.09999996731509772 0.7818332954249108
v 0.19379352033138275 0.09999996731509772 0.7818332954249108
v 0.736579179763794 -0.4480570555445565 0.0016295080730282787
v 0.544579267501831 -0.4480570555445565 0.0016295080730282787
v 0.544579267501831 -0.4480570419863632 0.3732518655905104
v 0.736579179763794 -0.4480570555445565 0.0016295080730282787
v 0.544579267501831 -0.4480570419863632 0.3732518655905104
v 0.736579179763794 -0.4480570419863632 0.3732518655905104
v 0.544579267501831 0.09999995980209206 0.4423625810942366
v 0.19320745766162872 0.10000000155340522 -0.0014478818574225295
v 0.19236454367637634 0.0999999852612379 0.37127346237513664
v 0.544579267501831 0.09999995980209206 0.4423625810942366
v 0.19236454367637634 0.0999999852612379 0.37127346237513664
v 0.544579267501831 0.09999996715064476 0.7855955406031334
v 0.19236454367637634 0.0999999852612379 0.37127346237513664
v 0.004579216241836548 0.09999998522265711 0.3721560879549706
v 0.004579216241836548 0.09999998218225488 0.44171238382670525
v 0.19236454367637634 0.0999999852612379 0.37127346237513664
v 0.004579216241836548 0.09999998218225488 0.44171238382670525
v 0.19236454367637634 0.0999999822685549 0.4397380693754876
v 0.544579267501831 -0.4480570555445565 0.0016295080730282787
v 0.19141951203346252 -0.44805698568557495 0.44883529373496794
v 0.19141951203346252 -0.4480568810599358 0.7824703259119445
v 0.544579267501831 -0.4480570555445565 0.0016295080730282787
v 0.19141951203346252 -0.4480568810599358 0.7824703259119445
v 0.544579267501831 -0.4480570419863632 0.3732518655905104
vn 0.7071067811865478 -0.7071067811865465 -3.0908618915621354e-8
vn -0.05942075559676361 -0.9835096291462667 -0.17081564091406481
vn -0.983088668133608 -0.06433476485714125 0.17145760005921382
vn 0.7071067811865478 -0.7071067811865465 -3.0908618915621354e-8
vn -0.983088668133608 -0.06433476485714125 0.17145760005921382
vn 0.982185274427663 -0.06393681300338584 0.17670362373314863
vn -0.5773502691896262 0.5773502944264067 -0.5773502439528433
vn -0.7071067811865478 0.7071067811865465 3.0908618915621354e-8
vn 0.06512692713506972 0.9818479625053002 0.17813776097765993
vn -0.5773502691896262 0.5773502944264067 -0.5773502439528433
vn 0.06512692713506972 0.9818479625053002 0.17813776097765993
vn 0.3413285022510164 0.6209773739718337 -0.7056075074473935
vn -0.7082609240628862 0.7059414095663651 -0.0036317633512871327
vn 0.7071067811865478 0.7071067811865465 3.0908618915621354e-8
vn 0.5773502691896262 0.5773502944264067 -0.5773502439528433
vn -0.7082609240628862 0.7059414095663651 -0.0036317633512871327
vn 0.5773502691896262 0.5773502944264067 -0.5773502439528433
vn -0.5740997969098737 0.5778842400950907 -0.5800510565784375
vn 0.9829578234431839 -0.061190704591139546 -0.17334824776581598
vn -0.983944172558549 -0.053988739584623385 -0.17011490612564184
vn -0.7071067811865478 -0.7071067811865465 -3.0908618915621354e-8
vn 0.9829578234431839 -0.061190704591139546 -0.17334824776581598
vn -0.7071067811865478 -0.7071067811865465 -3.0908618915621354e-8
vn 0.0669898643398413 -0.9812870631680359 0.18052162677856806
vn -0.32777227899306544 -0.6230725160393095 0.7101731992127951
vn 0.0669898643398413 -0.9812870631680359 0.18052162677856806
vn 0.3413285022510164 -0.6209773122856641 -0.7056075617349566
vn -0.32777227899306544 -0.6230725160393095 0.7101731992127951
vn 0.3413285022510164 -0.6209773122856641 -0.7056075617349566
vn -0.05942075559676361 -0.9835096291462667 -0.17081564091406481
vn 0.7071067811865478 0.7071067811865465 3.0908618915621354e-8
vn -0.7082609240628862 0.7059414095663651 -0.0036317633512871327
vn -0.05942075559676361 0.9835096440794404 -0.17081555493292203
vn 0.7071067811865478 0.7071067811865465 3.0908618915621354e-8
vn -0.05942075559676361 0.9835096440794404 -0.17081555493292203
vn 0.7071067811865478 0.7071067811865465 3.0908618915621354e-8
vn -0.5773502691896262 -0.5773502439528433 -0.5773502944264067
vn 0.3413285022510164 -0.6209773122856641 -0.7056075617349566
vn 0.0669898643398413 -0.9812870631680359 0.18052162677856806
vn -0.5773502691896262 -0.5773502439528433 -0.5773502944264067
vn 0.0669898643398413 -0.9812870631680359 0.18052162677856806
vn -0.7071067811865478 -0.7071067811865465 -3.0908618915621354e-8
vn 0.7071067811865478 0.7071067811865465 3.0908618915621354e-8
vn -0.05942075559676361 0.9835096440794404 -0.17081555493292203
vn -0.3272861504373997 0.6245720604010786 0.709079344712719
vn 0.7071067811865478 0.7071067811865465 3.0908618915621354e-8
vn -0.3272861504373997 0.6245720604010786 0.709079344712719
vn 0.5773502691896262 0.5773502439528433 0.5773502944264067
vn 0.7071067811865478 -0.7071067811865465 -3.0908618915621354e-8
vn 0.5773502691896262 -0.5773502944264067 0.5773502439528433
vn -0.32777227899306544 -0.6230725160393095 0.7101731992127951
vn 0.7071067811865478 -0.7071067811865465 -3.0908618915621354e-8
vn -0.32777227899306544 -0.6230725160393095 0.7101731992127951
vn -0.05942075559676361 -0.9835096291462667 -0.17081564091406481
vn -0.3418160251619765 -0.6208843645256729 -0.7054533371031838
vn 0.5773502691896262 -0.5773502439528433 -0.5773502944264067
vn 0.7071067811865478 -0.7071067811865465 -3.0908618915621354e-8
vn -0.3418160251619765 -0.6208843645256729 -0.7054533371031838
vn 0.7071067811865478 -0.7071067811865465 -3.0908618915621354e-8
vn -0.06720396727968736 -0.9812328677835558 0.1807365097680309
vn -0.06720396727968736 -0.9812328677835558 0.1807365097680309
vn 0.3252121296571214 -0.6242998742787925 0.7102722982767692
vn 0.059207400968533004 -0.9835753143968441 -0.1705112447309578
vn -0.06720396727968736 -0.9812328677835558 0.1807365097680309
vn 0.059207400968533004 -0.9835753143968441 -0.1705112447309578
vn -0.3418160251619765 -0.6208843645256729 -0.7054533371031838
vn -0.06720396727968736 -0.9812328677835558 0.1807365097680309
vn 0.7071067811865478 -0.7071067811865465 -3.0908618915621354e-8
vn 0.7071067811865478 -0.7071067811865465 -3.0908618915621354e-8
vn -0.06720396727968736 -0.9812328677835558 0.1807365097680309
vn 0.7071067811865478 -0.7071067811865465 -3.0908618915621354e-8
vn -0.7071067811865478 -0.7071067811865465 -3.0908618915621354e-8
vn 0.7071067811865478 0.7071067811865465 3.0908618915621354e-8
vn -0.06720396727968736 0.9812328519830646 0.18073659555013155
vn -0.9835074489564599 0.05884076624904588 -0.1710288340437997
vn 0.7071067811865478 0.7071067811865465 3.0908618915621354e-8
vn -0.9835074489564599 0.05884076624904588 -0.1710288340437997
vn 0.9838008833137125 0.058443322452905094 -0.1694703515421646
vn -0.7071067811865478 -0.7071067811865465 -3.0908618915621354e-8
vn 0.7071067811865478 -0.7071067811865465 -3.0908618915621354e-8
vn 0.5773502691896262 -0.5773502944264067 0.5773502439528433
vn -0.7071067811865478 -0.7071067811865465 -3.0908618915621354e-8
vn 0.5773502691896262 -0.5773502944264067 0.5773502439528433
vn -0.5773502691896262 -0.5773502944264067 0.5773502439528433
vn 0.5773502691896262 -0.5773502439528433 -0.5773502944264067
vn 0.7071067811865478 -0.7071067811865465 -3.0908618915621354e-8
vn -0.7071067811865478 -0.7071067811865465 -3.0908618915621354e-8
vn 0.5773502691896262 -0.5773502439528433 -0.5773502944264067
vn -0.7071067811865478 -0.7071067811865465 -3.0908618915621354e-8
vn -0.5773502691896262 -0.5773502439528433 -0.5773502944264067
vn -0.7071067811865478 -0.7071067811865465 -3.0908618915621354e-8
vn 0.059207400968533004 -0.9835753143968441 -0.1705112447309578
vn 0.3252121296571214 -0.6242998742787925 0.7102722982767692
vn -0.7071067811865478 -0.7071067811865465 -3.0908618915621354e-8
vn 0.3252121296571214 -0.6242998742787925 0.7102722982767692
vn -0.5773502691896262 -0.5773502944264067 0.5773502439528433
vn 0.9817154033610566 0.06451785634284646 0.17908744516733024
vn -0.9813668437469835 0.07055976741938452 0.17871887761455382
vn -0.7071067811865478 0.7071067811865465 3.0908618915621354e-8
vn 0.9817154033610566 0.06451785634284646 0.17908744516733024
vn -0.7071067811865478 0.7071067811865465 3.0908618915621354e-8
vn 0.05920740096853302 0.9835753293034067 -0.17051115874407266
vn -0.7071067811865478 -0.7071067811865465 -3.0908618915621354e-8
vn 0.7071067811865478 -0.7071067811865465 -3.0908618915621354e-8
vn 0.059207400968533004 -0.9835753143968441 -0.1705112447309578
vn -0.7071067811865478 -0.7071067811865465 -3.0908618915621354e-8
vn 0.059207400968533004 -0.9835753143968441 -0.1705112447309578
vn -0.7071067811865478 -0.7071067811865465 -3.0908618915621354e-8
vn -0.7071067811865478 0.7071067811865465 3.0908618915621354e-8
vn -0.5773502691896262 0.5773502439528433 0.5773502944264067
vn 0.3252121296571214 0.6242998121848139 0.7102723528547946
vn -0.7071067811865478 0.7071067811865465 3.0908618915621354e-8
vn 0.3252121296571214 0.6242998121848139 0.7102723528547946
vn 0.05920740096853302 0.9835753293034067 -0.17051115874407266
vn 0.7066328418117832 0.7075788867833077 -0.0014648725195346949
vn -0.7071067811865478 0.7071067811865465 3.0908618915621354e-8
vn -0.5773502691896262 0.5773502439528433 0.5773502944264067
vn 0.7066328418117832 0.7075788867833077 -0.0014648725195346949
vn -0.5773502691896262 0.5773502439528433 0.5773502944264067
vn 0.578671914266286 0.5771153734317495 0.5762609316864405
vn 0.5773502691896262 0.5773502944264067 -0.5773502439528433
vn -0.3418160251619765 0.6208844261983598 -0.7054532828237462
vn -0.06720396727968736 0.9812328519830646 0.18073659555013155
vn 0.5773502691896262 0.5773502944264067 -0.5773502439528433
vn -0.06720396727968736 0.9812328519830646 0.18073659555013155
vn 0.7071067811865478 0.7071067811865465 3.0908618915621354e-8
vn -0.05942075559676361 0.9835096440794404 -0.17081555493292203
vn 0.3413285022510164 0.6209773739718337 -0.7056075074473935
vn 0.06512692713506972 0.9818479625053002 0.17813776097765993
vn -0.05942075559676361 0.9835096440794404 -0.17081555493292203
vn 0.06512692713506972 0.9818479625053002 0.17813776097765993
vn -0.3272861504373997 0.6245720604010786 0.709079344712719
vn 0.06512692713506972 0.9818479625053002 0.17813776097765993
vn -0.7071067811865478 0.7071067811865465 3.0908618915621354e-8
vn -0.7071067811865478 0.7071067811865465 3.0908618915621354e-8
vn 0.06512692713506972 0.9818479625053002 0.17813776097765993
vn -0.7071067811865478 0.7071067811865465 3.0908618915621354e-8
vn 0.7066328418117832 0.7075788867833077 -0.0014648725195346949
vn -0.3418160251619765 0.6208844261983598 -0.7054532828237462
vn 0.05920740096853302 0.9835753293034067 -0.17051115874407266
vn 0.3252121296571214 0.6242998121848139 0.7102723528547946
vn -0.3418160251619765 0.6208844261983598 -0.7054532828237462
vn 0.3252121296571214 0.6242998121848139 0.7102723528547946
vn -0.06720396727968736 0.9812328519830646 0.18073659555013155
f 241//241 242//242 243//243
f 244//244 245//245 246//246
f 247//247 248//248 249//249
f 250//250 251//251 252//252
f 253//253 254//254 255//255
f 256//256 257//257 258//258
f 259//259 260//260 261//261
f 262//262 263//263 264//264
f 265//265 266//266 267//267
f 268//268 269//269 270//270
f 271//271 272//272 273//273
f 274//274 275//275 276//276
f 277//277 278//278 279//279
f 280//280 281//281 282//282
f 283//283 284//284 285//285
f 286//286 287//287 288//288
f 289//289 290//290 291//291
f 292//292 293//293 294//294
f 295//295 296//296 297//297
f 298//298 299//299 300//300
f 301//301 302//302 303//303
f 304//304 305//305 306//306
f 307//307 308//308 309//309
f 310//310 311//311 312//312
f 313//313 314//314 315//315
f 316//316 317//317 318//318
f 319//319 320//320 321//321
f 322//322 323//323 324//324
f 325//325 326//326 327//327
f 328//328 329//329 330//330
f 331//331 332//332 333//333
f 334//334 335//335 336//336
f 337//337 338//338 339//339
f 340//340 341//341 342//342
f 343//343 344//344 345//345
f 346//346 347//347 348//348
f 349//349 350//350 351//351
f 352//352 353//353 354//354
f 355//355 356//356 357//357
f 358//358 359//359 360//360
f 361//361 362//362 363//363
f 364//364 365//365 366//366
f 367//367 368//368 369//369
f 370//370 371//371 372//372
f 373//373 374//374 375//375
f 376//376 377//377 378//378
f 379//379 380//380 381//381
f 382//382 383//383 384//384
